{
    "asset" : {
        "generator" : "Khronos glTF Blender I/O v1.5.17",
        "version" : "2.0"
    },
    "scene" : 0,
    "scenes" : [
        {
            "name" : "Scene",
            "nodes" : [
                2
            ]
        }
    ],
    "nodes" : [
        {
            "mesh" : 0,
            "name" : "Cube.017",
            "translation" : [
                0.021036148071289062,
                -0.18765641748905182,
                0.03207874298095703
            ]
        },
        {
            "mesh" : 1,
            "name" : "Cube.018",
            "translation" : [
                -0.0839071273803711,
                0.2600184679031372,
                -0.10369873046875
            ]
        },
        {
            "children" : [
                0,
                1
            ],
            "mesh" : 2,
            "name" : "Cube.019",
            "translation" : [
                0,
                0.20000000298023224,
                0
            ]
        }
    ],
    "animations" : [
        {
            "channels" : [
                {
                    "sampler" : 0,
                    "target" : {
                        "node" : 0,
                        "path" : "translation"
                    }
                },
                {
                    "sampler" : 1,
                    "target" : {
                        "node" : 0,
                        "path" : "rotation"
                    }
                },
                {
                    "sampler" : 2,
                    "target" : {
                        "node" : 0,
                        "path" : "scale"
                    }
                }
            ],
            "name" : "Cube.017Action",
            "samplers" : [
                {
                    "input" : 16,
                    "interpolation" : "LINEAR",
                    "output" : 17
                },
                {
                    "input" : 16,
                    "interpolation" : "LINEAR",
                    "output" : 18
                },
                {
                    "input" : 16,
                    "interpolation" : "LINEAR",
                    "output" : 19
                }
            ]
        },
        {
            "channels" : [
                {
                    "sampler" : 0,
                    "target" : {
                        "node" : 1,
                        "path" : "translation"
                    }
                },
                {
                    "sampler" : 1,
                    "target" : {
                        "node" : 1,
                        "path" : "rotation"
                    }
                },
                {
                    "sampler" : 2,
                    "target" : {
                        "node" : 1,
                        "path" : "scale"
                    }
                }
            ],
            "name" : "Cube.018Action",
            "samplers" : [
                {
                    "input" : 16,
                    "interpolation" : "LINEAR",
                    "output" : 20
                },
                {
                    "input" : 16,
                    "interpolation" : "LINEAR",
                    "output" : 21
                },
                {
                    "input" : 16,
                    "interpolation" : "LINEAR",
                    "output" : 22
                }
            ]
        },
        {
            "channels" : [
                {
                    "sampler" : 0,
                    "target" : {
                        "node" : 2,
                        "path" : "translation"
                    }
                },
                {
                    "sampler" : 1,
                    "target" : {
                        "node" : 2,
                        "path" : "rotation"
                    }
                },
                {
                    "sampler" : 2,
                    "target" : {
                        "node" : 2,
                        "path" : "scale"
                    }
                }
            ],
            "name" : "Cube.019Action",
            "samplers" : [
                {
                    "input" : 23,
                    "interpolation" : "LINEAR",
                    "output" : 24
                },
                {
                    "input" : 23,
                    "interpolation" : "LINEAR",
                    "output" : 25
                },
                {
                    "input" : 23,
                    "interpolation" : "LINEAR",
                    "output" : 26
                }
            ]
        }
    ],
    "meshes" : [
        {
            "name" : "Cube.022",
            "primitives" : [
                {
                    "attributes" : {
                        "POSITION" : 0,
                        "NORMAL" : 1,
                        "TEXCOORD_0" : 2
                    },
                    "indices" : 3
                }
            ]
        },
        {
            "name" : "Cube.023",
            "primitives" : [
                {
                    "attributes" : {
                        "POSITION" : 4,
                        "NORMAL" : 5,
                        "TEXCOORD_0" : 6
                    },
                    "indices" : 7
                }
            ]
        },
        {
            "name" : "Cube.024",
            "primitives" : [
                {
                    "attributes" : {
                        "POSITION" : 8,
                        "NORMAL" : 9,
                        "TEXCOORD_0" : 10
                    },
                    "indices" : 11
                },
                {
                    "attributes" : {
                        "POSITION" : 12,
                        "NORMAL" : 13,
                        "TEXCOORD_0" : 14
                    },
                    "indices" : 15
                }
            ]
        }
    ],
    "accessors" : [
        {
            "bufferView" : 0,
            "componentType" : 5126,
            "count" : 1152,
            "max" : [
                0.18444347381591797,
                0.12091217935085297,
                0.1661510467529297
            ],
            "min" : [
                -0.1860971450805664,
                -0.04108772426843643,
                -0.19106221199035645
            ],
            "type" : "VEC3"
        },
        {
            "bufferView" : 1,
            "componentType" : 5126,
            "count" : 1152,
            "type" : "VEC3"
        },
        {
            "bufferView" : 2,
            "componentType" : 5126,
            "count" : 1152,
            "type" : "VEC2"
        },
        {
            "bufferView" : 3,
            "componentType" : 5123,
            "count" : 3600,
            "type" : "SCALAR"
        },
        {
            "bufferView" : 4,
            "componentType" : 5126,
            "count" : 39,
            "max" : [
                0.17081069946289062,
                0.20013469457626343,
                0.14617133140563965
            ],
            "min" : [
                -0.1757192611694336,
                -0.19458648562431335,
                -0.15982294082641602
            ],
            "type" : "VEC3"
        },
        {
            "bufferView" : 5,
            "componentType" : 5126,
            "count" : 39,
            "type" : "VEC3"
        },
        {
            "bufferView" : 6,
            "componentType" : 5126,
            "count" : 39,
            "type" : "VEC2"
        },
        {
            "bufferView" : 7,
            "componentType" : 5123,
            "count" : 144,
            "type" : "SCALAR"
        },
        {
            "bufferView" : 8,
            "componentType" : 5126,
            "count" : 174,
            "max" : [
                0.2886161804199219,
                0.02194856107234955,
                0.2937953472137451
            ],
            "min" : [
                -0.22600936889648438,
                -0.05519746243953705,
                -0.2207322120666504
            ],
            "type" : "VEC3"
        },
        {
            "bufferView" : 9,
            "componentType" : 5126,
            "count" : 174,
            "type" : "VEC3"
        },
        {
            "bufferView" : 10,
            "componentType" : 5126,
            "count" : 174,
            "type" : "VEC2"
        },
        {
            "bufferView" : 11,
            "componentType" : 5123,
            "count" : 744,
            "type" : "SCALAR"
        },
        {
            "bufferView" : 12,
            "componentType" : 5126,
            "count" : 54,
            "max" : [
                -0.023041725158691406,
                0.1783124804496765,
                -0.05628013610839844
            ],
            "min" : [
                -0.19878482818603516,
                0.002686813473701477,
                -0.21666622161865234
            ],
            "type" : "VEC3"
        },
        {
            "bufferView" : 13,
            "componentType" : 5126,
            "count" : 54,
            "type" : "VEC3"
        },
        {
            "bufferView" : 14,
            "componentType" : 5126,
            "count" : 54,
            "type" : "VEC2"
        },
        {
            "bufferView" : 15,
            "componentType" : 5123,
            "count" : 192,
            "type" : "SCALAR"
        },
        {
            "bufferView" : 16,
            "componentType" : 5126,
            "count" : 10,
            "max" : [
                0.4166666666666667
            ],
            "min" : [
                0.041666666666666664
            ],
            "type" : "SCALAR"
        },
        {
            "bufferView" : 17,
            "componentType" : 5126,
            "count" : 10,
            "type" : "VEC3"
        },
        {
            "bufferView" : 18,
            "componentType" : 5126,
            "count" : 10,
            "type" : "VEC4"
        },
        {
            "bufferView" : 19,
            "componentType" : 5126,
            "count" : 10,
            "type" : "VEC3"
        },
        {
            "bufferView" : 20,
            "componentType" : 5126,
            "count" : 10,
            "type" : "VEC3"
        },
        {
            "bufferView" : 21,
            "componentType" : 5126,
            "count" : 10,
            "type" : "VEC4"
        },
        {
            "bufferView" : 22,
            "componentType" : 5126,
            "count" : 10,
            "type" : "VEC3"
        },
        {
            "bufferView" : 23,
            "componentType" : 5126,
            "count" : 11,
            "max" : [
                0.4166666666666667
            ],
            "min" : [
                0
            ],
            "type" : "SCALAR"
        },
        {
            "bufferView" : 24,
            "componentType" : 5126,
            "count" : 11,
            "type" : "VEC3"
        },
        {
            "bufferView" : 25,
            "componentType" : 5126,
            "count" : 11,
            "type" : "VEC4"
        },
        {
            "bufferView" : 26,
            "componentType" : 5126,
            "count" : 11,
            "type" : "VEC3"
        }
    ],
    "bufferViews" : [
        {
            "buffer" : 0,
            "byteLength" : 13824,
            "byteOffset" : 0
        },
        {
            "buffer" : 0,
            "byteLength" : 13824,
            "byteOffset" : 13824
        },
        {
            "buffer" : 0,
            "byteLength" : 9216,
            "byteOffset" : 27648
        },
        {
            "buffer" : 0,
            "byteLength" : 7200,
            "byteOffset" : 36864
        },
        {
            "buffer" : 0,
            "byteLength" : 468,
            "byteOffset" : 44064
        },
        {
            "buffer" : 0,
            "byteLength" : 468,
            "byteOffset" : 44532
        },
        {
            "buffer" : 0,
            "byteLength" : 312,
            "byteOffset" : 45000
        },
        {
            "buffer" : 0,
            "byteLength" : 288,
            "byteOffset" : 45312
        },
        {
            "buffer" : 0,
            "byteLength" : 2088,
            "byteOffset" : 45600
        },
        {
            "buffer" : 0,
            "byteLength" : 2088,
            "byteOffset" : 47688
        },
        {
            "buffer" : 0,
            "byteLength" : 1392,
            "byteOffset" : 49776
        },
        {
            "buffer" : 0,
            "byteLength" : 1488,
            "byteOffset" : 51168
        },
        {
            "buffer" : 0,
            "byteLength" : 648,
            "byteOffset" : 52656
        },
        {
            "buffer" : 0,
            "byteLength" : 648,
            "byteOffset" : 53304
        },
        {
            "buffer" : 0,
            "byteLength" : 432,
            "byteOffset" : 53952
        },
        {
            "buffer" : 0,
            "byteLength" : 384,
            "byteOffset" : 54384
        },
        {
            "buffer" : 0,
            "byteLength" : 40,
            "byteOffset" : 54768
        },
        {
            "buffer" : 0,
            "byteLength" : 120,
            "byteOffset" : 54808
        },
        {
            "buffer" : 0,
            "byteLength" : 160,
            "byteOffset" : 54928
        },
        {
            "buffer" : 0,
            "byteLength" : 120,
            "byteOffset" : 55088
        },
        {
            "buffer" : 0,
            "byteLength" : 120,
            "byteOffset" : 55208
        },
        {
            "buffer" : 0,
            "byteLength" : 160,
            "byteOffset" : 55328
        },
        {
            "buffer" : 0,
            "byteLength" : 120,
            "byteOffset" : 55488
        },
        {
            "buffer" : 0,
            "byteLength" : 44,
            "byteOffset" : 55608
        },
        {
            "buffer" : 0,
            "byteLength" : 132,
            "byteOffset" : 55652
        },
        {
            "buffer" : 0,
            "byteLength" : 176,
            "byteOffset" : 55784
        },
        {
            "buffer" : 0,
            "byteLength" : 132,
            "byteOffset" : 55960
        }
    ],
    "buffers" : [
        {
            "byteLength" : 56092,
            "uri" : "silla sala peque\u00f1a.bin"
        }
    ]
}
