
<svg version="1.0" xmlns="http://www.w3.org/2000/svg"
 width="512.000000pt" height="512.000000pt" viewBox="0 0 512.000000 512.000000"
 preserveAspectRatio="xMidYMid meet">
<g transform="translate(0.000000,512.000000) scale(0.100000,-0.100000)"
fill="#535353" stroke="none">
<path d="M561 5104 c-215 -58 -390 -234 -446 -450 -19 -75 -19 -242 0 -319 52
-205 208 -372 412 -442 74 -25 92 -27 353 -34 310 -9 396 -22 545 -82 618
-253 862 -988 517 -1561 -56 -94 -186 -235 -280 -305 -184 -136 -416 -211
-654 -211 -340 0 -631 -182 -773 -485 -55 -115 -74 -194 -82 -325 -22 -408
251 -775 649 -870 114 -27 292 -27 408 0 235 56 448 227 556 445 56 114 81
215 93 380 11 150 33 224 92 316 71 110 176 193 305 242 58 22 69 22 569 25
487 3 512 2 576 -18 206 -62 359 -268 359 -485 1 -161 69 -325 185 -440 301
-302 812 -220 1003 161 45 89 62 168 62 281 0 180 -55 318 -174 438 -123 124
-226 168 -439 190 -122 12 -147 18 -213 49 -153 73 -254 216 -274 387 -5 46
-10 231 -10 410 0 360 -6 420 -61 577 -61 174 -150 312 -291 448 -156 151
-335 248 -557 301 -52 12 -163 17 -541 23 -523 8 -524 8 -665 76 -151 72 -278
198 -350 348 -47 98 -64 170 -75 316 -5 69 -17 150 -26 180 -62 211 -238 381
-449 435 -75 19 -251 19 -324 -1z"/>
</g>
</svg>
