<svg xmlns="http://www.w3.org/2000/svg" viewBox="0 0 1017.1 246.56"><g id="Capa_2" data-name="Capa 2"><g id="Capa_1-2" data-name="Capa 1"><path d="M325.84,13.57c-19.47,0-38.94.12-58.41-.09-4.24,0-5.34,1.27-5.27,5.41.25,14.77,0,29.54.18,44.31,0,3.67-.64,5.38-4.9,5.29-9.52-.2-9.53,0-9.54-9.65,0-13.42-.17-26.85.1-40.28.08-4-1.05-5.08-5-5.07q-54.63.22-109.27.06c-3.32,0-6.64-.6-10-.83-3.81-.26-7.24.68-8.46,4.7-1.3,4.31,1.83,6.46,5,8.22,4,2.19,8,4.12,12,6.31,9.7,5.38,13.27,12.92,11,22.94-1.72,7.59-9.79,13.59-19.39,14.13-6.54.37-13,.2-19.41-1.87-3.34-1.09-4.86-2.58-4.77-6.37.21-8.85,0-8.88,8.17-6.12,4.64,1.57,9.33,2.66,14.29,2.24,3.24-.27,6-1.32,6.91-4.71s-.42-6-3.36-7.64c-4.23-2.38-8.58-4.55-12.85-6.87-7-3.82-12-9-12.11-17.63-.13-11,7-18.64,18.08-19.47,6.4-.48,12.73.66,19.1.66q125.63,0,251.26,0c6.2,0,12.41-.21,18.61-.4,2.4-.07,3.95.44,4.87,3.1q10.56,30.36,21.44,60.62c1,2.81.44,3.78-2.72,3.91-11.66.47-11.88.64-15.1-10.87-1.07-3.79-2.57-5.19-6.48-4.91a101.5,101.5,0,0,1-14.59,0c-3.65-.27-5.32,1.15-5.74,4.55a2.7,2.7,0,0,1-.16.48c-3.26,11.2-3.26,11-14.72,10.8-4-.09-4-1.54-2.9-4.59,5.42-15.14,10.55-30.38,16.16-45.44,1.65-4.43.33-5-3.64-5-19.47.12-38.94,0-58.41,0Zm77-.15c-1.79,5.88-3.19,10.4-4.54,14.94-3.72,12.51-3.72,12.51,9.43,11.74.33,0,.67,0,1,0,1.65-.07,2.41-.53,1.77-2.48C408,30,405.68,22.41,402.85,13.42"/><path d="M723.26,18.68q-3.59,10.86-7.15,21.72c-2.5,7.63-5.46,15.15-7.34,22.94-1.48,6.15-5.72,4.7-9.72,5.08s-5.95-.93-7.1-5c-3.81-13.35-8-26.58-12.11-39.86-.32-1.07-.7-2.12-1.39-4.19V53.83c0,2.52,0,5,0,7.55,0,6.94-.06,6.67-6.7,7.06-4.8.28-6.62-.69-6.51-6.17.41-18.94.21-37.91,0-56.86,0-3.27.86-4.74,4.2-4.38a27.64,27.64,0,0,0,3,0c13,0,12.88,0,16.53,12.57,3.59,12.35,7.48,24.62,11.62,38.14,3.49-10.66,6.63-20.23,9.77-29.81,1.77-5.41,3.66-10.78,5.26-16.24,1-3.31,2.49-5.12,6.33-4.73a77,77,0,0,0,11.06,0c2.92-.13,4.21.75,4.19,4q-.18,29.7,0,59.39c0,3-1.12,4-4.14,4.06-9.83.24-9.89.37-9.8-9.29.12-13.41-.57-26.82,0-40.43"/><path d="M877.06,49.87c-1.17-16-.43-30.44-.72-44.85-.07-3.15,1.12-4.07,4.11-4,11.11.22,9.27-1.08,9.34,8.82.13,17.79-.06,35.58.11,53.37,0,3.89-1.13,5.19-5.11,5.23-13.15.12-13.18.29-19.72-11s-13-22.68-19.52-34c-.64-1.12-1.36-2.19-2.27-3.64,0,14.54.06,28.52-.06,42.51,0,2,1.3,5.07-1.45,5.73a19.07,19.07,0,0,1-10.89-.3c-1.25-.46-.82-2.09-.82-3.2,0-19.8,0-39.61,0-59.41,0-3.05,1.07-3.72,4-4.14,10.05-1.43,16.67,1.34,21.21,11.4C860.41,23.72,867.62,34.18,874,45c.73,1.25,1.56,2.44,3.1,4.83"/><path d="M491.64,48c0-13.73.18-27.46-.1-41.19-.09-4.42,1.16-6.23,5.62-5.56a16.38,16.38,0,0,0,4,0C503.94,1,505,2,505,4.9q-.15,29.93,0,59.86c0,2.94-1.12,3.94-3.85,3.62a3.35,3.35,0,0,0-1,0c-10,1.88-16.14-1.75-20.56-11.35-5.37-11.67-12.6-22.47-19-33.64-.72-1.26-1.53-2.46-3.1-5,1.75,15.85.57,30.22,1.22,44.53.29,6.4-3.42,5.35-7.25,5.51-4,.17-6.4-.11-6.3-5.42.35-18.94.27-37.89,0-56.83,0-4.13,1.33-5.05,5.16-5,13.38,0,13.28,0,19.88,11.58,6.75,11.9,13.73,23.68,20.6,35.51l.85-.29"/><path d="M307.56,180c-.6,4.57-.94,12-2.62,19.2-8.53,36.25-33.77,48.72-66.6,46.91-36.45-2-56.1-22.81-59-58-1.1-13.23-.9-26.28,2.75-39,5.69-19.92,18.25-33.06,38.5-39.05,34-10.06,68,2.59,80.2,30.61,5.05,11.61,6.45,24,6.79,39.34M243.3,220.64c17-.14,27.07-8.09,30.8-24.69a88.85,88.85,0,0,0,.24-38.1C271,141.68,260,132.27,244.16,131.6c-15.6-.65-27.51,8.11-31.91,24a77.28,77.28,0,0,0,0,41.88c4.52,16.22,14.11,23.25,31,23.12"/><path d="M985.08,69.05c-25.51.29-33.63-18.3-31.84-39.94a37.13,37.13,0,0,1,4.4-15.31C963.88,2.7,976.87-1,989.45.24c21.84,2.22,27.41,17.8,27.64,35.23a40.25,40.25,0,0,1-2.85,15.71c-4.94,12.09-14.55,17.89-29.16,17.87m16.09-34.34a65.91,65.91,0,0,0,0-7c-1-9.06-6.42-14.61-14.59-15.13-9-.57-15.17,3.8-17.19,12.68a40.57,40.57,0,0,0-.19,18c1.92,8.61,6.68,13,14.56,13.4,9,.45,13.78-3,16.74-11.91,1.09-3.29.57-6.65.71-10"/><path d="M.07,34.68C.06,25,.17,15.22,0,5.49-.06,2.23,1,1,4.28,1.18,13.13,1.73,22,.56,30.85,2.23,50.63,6,57.31,22.61,55.36,39.48,52.73,62.05,36.58,67.8,21.65,68.33c-5.86.21-11.75-.08-17.61.09-3.07.1-4.07-1-4-4,.16-9.9.06-19.79.06-29.69m14.33.21c0,5.86,0,11.71,0,17.57,0,1.6-.39,3.48,2.25,3.58,10.93.43,20.64-1.35,23-14.72,3.09-17.48-2.86-28.89-21.37-28.18-3,.11-4.07,1.14-4,4.19.21,5.85.06,11.71.06,17.56"/><path d="M625.49,52.52c-11.78,0-11.9,0-15,11.3-1,3.57-2.74,4.66-6.38,4.61-10.89-.14-11,0-7.45-10.42,6.12-17.73,12.48-35.37,18.6-53.09,1-3,2.54-4.07,5.77-4.07,13.31,0,13.34-.15,17.84,12.46,6,16.72,11.75,33.5,17.88,50.16,1.63,4.45.17,5-3.84,4.94-10.43-.19-11,.07-13.18-9.31-1.34-5.67-3.89-7.43-9.21-6.61a33.75,33.75,0,0,1-5,0M617.57,40h13.14c1.53,0,3.34.19,2.59-2.28C631,30,628.55,22.31,626.17,14.6l-.95.07L617.57,40"/><path d="M778.26,108.53c18,0,17.9.06,24,17.33,12.69,35.88,25.32,71.77,38.32,107.53,3,8.22,1.91,11.08-7.63,10.91-20.68-.38-21.39.26-26.66-20.16-2.53-9.81-7-13.37-16.51-11.84-2.3.37-4.72,0-7.08.06C773.64,212.61,763,210,756,214c-6.73,3.8-6.25,15.54-8.87,23.81-1.43,4.53-3.49,6.7-8.5,6.38-6.05-.39-12.15-.18-18.22,0s-6.68-2.22-4.8-7.48q21.75-60.87,43-121.94c1.63-4.7,3.72-6.66,8.57-6.25,3.69.3,7.42.06,11.14,0m.41,25.14c-4.71,15.05-8.54,27.53-12.51,40-4.49,14.06-4.54,14,10.58,14,4,0,8.09-.18,12.11.07,4.46.27,6.34-1.17,4.88-5.79-4.81-15.31-9.57-30.64-15.06-48.23"/><path d="M779.65,34.6c0-9.73.12-19.46-.07-29.18-.06-3.21.78-4.5,4.17-4.44q15.09.25,30.19,0c3.15,0,4.79.77,4.43,4.2a25.27,25.27,0,0,0,0,4.52c.18,2.64-1,3.52-3.58,3.46-5.7-.12-11.41.11-17.1-.08-2.93-.09-3.64,1-3.72,3.79-.29,10.38-.39,10.38,10.16,10.38h6c6.64,0,6.4,0,6.66,6.55.17,4.29-1,6.1-5.57,5.68s-9.06,0-13.58-.13c-2.92-.12-4,1.06-3.65,3.82a4.17,4.17,0,0,1,0,.5c-.31,12.38-.31,12.38,12.1,12.38h4c8.83,0,9.23.52,8.25,9.33-.24,2.14-1.06,2.94-3.11,2.94q-16.35,0-32.7,0c-3.06,0-2.94-2-2.94-4.07,0-9.89,0-19.79,0-29.68"/><path d="M1.25,226.51v-4.67c.11-11.25.07-11.14,10.64-7.27,11.72,4.29,23.5,8.39,36.36,6.09,5.7-1,10.32-3.39,11.86-9.44,1.66-6.53-1.45-11.47-6.6-14.6-7.45-4.54-15.42-8.22-23.14-12.33-14.93-7.94-26.92-17.83-27.06-36.87-.16-20.59,9.7-34.11,29.74-38.53,17.73-3.91,34.81-.72,51.41,6.06,3.57,1.46,4.88,3.2,2.81,6.79a39.05,39.05,0,0,0-1.91,4.67c-5.39,13.14-5.33,13-18.46,9.2-6.12-1.75-12.46-3.41-18.76-3.67-6.54-.28-13.15,1.81-15.49,8.94-2.5,7.6,1.28,13,7.89,16.64,10.64,5.8,21.66,11,31.94,17.35,13.3,8.24,18.52,20.88,16.86,36.35C87.81,225.6,80.16,235.7,67,241.15a68.47,68.47,0,0,1-32.67,5.06C28,245.63,21.7,244,15.37,243,4.89,241.4-1.72,236.9,1.25,226.51"/><path d="M398.81,172.15c.47-15.07,4.22-34,19.38-48.6,21.88-21.08,55.74-18.94,78.67-8.89,4.17,1.83,4.59,4.26,3.18,7.88-.73,1.88-1.42,3.78-2.17,5.66-5,12.53-5,12.52-18,7.63-25.83-9.72-42.66-.93-49,25.8a70.4,70.4,0,0,0,2,39.76c4.67,13.62,16.39,20.94,31.68,19.69,8.37-.68,16.77-1.55,24.7-4.77,4.82-1.95,7.05-1.1,7.24,5,.59,18.82-.23,20.44-18.67,23.16-8.28,1.22-16.58,2.86-25.13,1.63-36.64-5.29-54-27.4-53.87-74"/><path d="M511.8,35.53a36.61,36.61,0,0,1,3.4-19C521,4,533.94-1.07,547,.42a53.08,53.08,0,0,1,12.64,3c2.41.9,3.27,2.12,2,4.51a17.7,17.7,0,0,0-.68,1.89c-2.73,7-2.73,7-9.84,4.28-12-4.57-21,.31-23.73,12.82a38.62,38.62,0,0,0,0,16.44q3.32,15.27,19,13.17a49.54,49.54,0,0,0,5.41-1c9-2.24,8.91-2.27,8.42,7.22-.11,2.16-.74,3.29-2.88,4A46.12,46.12,0,0,1,533,68.2c-12.29-2.69-20.19-12.8-21.2-26.11-.17-2.34,0-4.7,0-6.56"/><path d="M930.65,40.7c0,7.72-.14,15.45.06,23.16.1,3.57-1.19,4.62-4.67,4.54-12.13-.27-10,1.31-10.13-10.11q-.18-20.38,0-40.78c0-3.18-.75-4.64-4.22-4.34s-6.72-.07-10.06.11c-3,.17-4.09-.76-4.11-3.94-.06-8.28-.22-8.28,7.89-8.29,12.92,0,25.85.23,38.76-.11,5.36-.14,4.5,3.13,4.48,6.21s1,6.45-4.42,6.22c-4.4-.2-10.37-2.19-12.91,1-2.15,2.72-.64,8.37-.69,12.72,0,4.53,0,9.06,0,13.59"/><path d="M933.46,176.47c0-19.56.17-39.13-.11-58.69-.09-6.15,1.19-9.2,8.27-9,25.84.67,20.82-3,21.07,20.4.29,26.65.37,53.31-.16,80-.17,8.57,2.6,11.09,10.88,10.65,11.78-.62,23.62.14,35.41-.25,6.08-.19,8.82,1.67,8.19,8a53.46,53.46,0,0,0,0,10.12c.44,5-2.13,6.48-6.6,6.48-23.61-.05-47.22-.13-70.84.06-6.15.05-6.11-3.66-6.1-7.95q.06-29.87,0-59.72"/><path d="M586.19,35.29c0,9.38-.13,18.77.08,28.15.07,3.6-.83,5-4.73,5-10.2,0-10.22.16-10.23-10,0-17.27.13-34.53-.09-51.79-.05-4.25.85-5.91,5.5-5.73,9.47.36,9.48.09,9.47,9.72V35.29"/><path d="M765.64,35.28c0,9.39-.16,18.8.07,28.19.09,3.63-.78,5.11-4.7,5-12-.44-10,1.49-10.11-10.14-.13-17.12.08-34.24-.12-51.36,0-4.42,1.06-6.22,5.85-6,10.56.53,8.89-1.42,9,9.15.08,8.39,0,16.78,0,25.18"/><path d="M594.53,176.75c0-19.91.16-39.83-.1-59.74-.08-6,1.81-8.1,8.08-8.24,21.39-.49,21.36-.74,21.35,21,0,35.1-.17,70.21.16,105.31.07,7.07-2.08,9.19-9.11,9.22-20.44.09-20.42.38-20.39-19.95q0-23.79,0-47.59"/><path d="M70.48,34.83c0-9.87.1-19.75-.06-29.62,0-3.07,1-4,4-4C85,1,85,.86,85,11.17c0,17.41-.11,34.82.09,52.23,0,3.95-1.09,5.14-5.06,5.06-9.56-.17-9.56,0-9.55-9.52q0-12.06,0-24.11"/></g></g></svg>