<svg xmlns="http://www.w3.org/2000/svg" width="29.596" height="51.958" viewBox="0 0 29.596 51.958">
    <g>
        <g fill="none">
            <path stroke="#fff" d="M2.431 23.1A2.434 2.434 0 0 1 0 20.669V2.432a2.431 2.431 0 1 1 4.863 0v18.237A2.435 2.435 0 0 1 2.431 23.1zM.256 18.524zm.005-3.647zm-.007-3.648zm0-3.648zm0-3.648z" transform="translate(1 1) translate(11.367 27.357)"/>
            <g>
                <path d="M12.157 39.514V17.423a1.815 1.815 0 0 1-.226-.193l-2.2-2.205v7.467a1.824 1.824 0 1 1-3.648 0v-7.146l-1.889 1.885a1.823 1.823 0 0 1-.547.377v21.906a1.823 1.823 0 1 1-3.647 0V13.982a1.823 1.823 0 0 1 3.322-1.038l.872-.872a1.825 1.825 0 0 1 1.885-.435V1.823a1.824 1.824 0 0 1 3.648 0v9.96a1.826 1.826 0 0 1 2.2.288l.692.693a1.823 1.823 0 0 1 3.181 1.218v25.532a1.824 1.824 0 1 1-3.648 0z" transform="translate(1 1) translate(5.897)"/>
                <path fill="#fff" d="M13.981 40.339c.455 0 .824-.37.824-.825V13.982c0-.455-.37-.824-.824-.824-.237 0-.455.097-.613.274l-.705.787-1.438-1.44c-.156-.155-.363-.241-.584-.241-.145 0-.288.038-.413.11l-.927.538 3.337 3.337c.034.034.068.063.101.087l.418.3v22.604c0 .455.37.825.824.825m-12.158 0c.454 0 .824-.37.824-.825V16.958l.593-.264c.091-.04.174-.098.247-.17l3.512-3.513-1.245-.428c-.087-.03-.178-.045-.27-.045-.22 0-.427.085-.583.24l-1.718 1.719-.682-.983c-.155-.223-.408-.356-.678-.356-.454 0-.823.37-.823.824v25.532c0 .455.37.825.823.825m6.079-17.022c.455 0 .824-.37.824-.824V1.823c0-.454-.37-.823-.824-.823-.454 0-.823.37-.823.823v20.67c0 .454.369.824.823.824m6.08 18.022c-1.008 0-1.825-.817-1.825-1.825v-22.09c-.079-.058-.155-.122-.226-.193l-2.205-2.205v7.467c0 1.008-.817 1.824-1.824 1.824-1.007 0-1.823-.816-1.823-1.824v-7.147L4.194 17.23c-.163.162-.35.288-.547.377v21.906c0 1.008-.816 1.825-1.824 1.825C.816 41.339 0 40.522 0 39.514V13.982c0-1.008.816-1.824 1.823-1.824.621 0 1.17.312 1.499.786l.872-.872c.51-.51 1.246-.655 1.885-.435V1.823C6.079.816 6.895 0 7.902 0c1.007 0 1.824.816 1.824 1.823v9.96c.698-.405 1.607-.309 2.205.289l.692.693c.334-.373.82-.607 1.358-.607 1.008 0 1.824.816 1.824 1.824v25.532c0 1.008-.816 1.825-1.824 1.825z" transform="translate(1 1) translate(5.897)"/>
            </g>
            <path stroke="#fff" stroke-linecap="round" stroke-linejoin="round" stroke-width="2px" d="M-1060.092 362.195h-8.248l-4.609 2.809h-2.231l-4.491-2.809h-8.017" transform="translate(1 1) translate(1087.688 -362.195)"/>
        </g>
    </g>
</svg>
