{
    "asset" : {
        "generator" : "Khronos glTF Blender I/O v1.5.17",
        "version" : "2.0"
    },
    "scene" : 0,
    "scenes" : [
        {
            "name" : "Scene",
            "nodes" : [
                0
            ]
        }
    ],
    "nodes" : [
        {
            "mesh" : 0,
            "name" : "Cube.007"
        }
    ],
    "meshes" : [
        {
            "name" : "Cube",
            "primitives" : [
                {
                    "attributes" : {
                        "POSITION" : 0,
                        "NORMAL" : 1,
                        "TEXCOORD_0" : 2
                    },
                    "indices" : 3
                }
            ]
        }
    ],
    "accessors" : [
        {
            "bufferView" : 0,
            "componentType" : 5126,
            "count" : 166327,
            "max" : [
                2.4892444610595703,
                0.26466843485832214,
                1.533595323562622
            ],
            "min" : [
                -2.4909634590148926,
                -0.017600513994693756,
                -1.5334078073501587
            ],
            "type" : "VEC3"
        },
        {
            "bufferView" : 1,
            "componentType" : 5126,
            "count" : 166327,
            "type" : "VEC3"
        },
        {
            "bufferView" : 2,
            "componentType" : 5126,
            "count" : 166327,
            "type" : "VEC2"
        },
        {
            "bufferView" : 3,
            "componentType" : 5125,
            "count" : 380934,
            "type" : "SCALAR"
        }
    ],
    "bufferViews" : [
        {
            "buffer" : 0,
            "byteLength" : 1995924,
            "byteOffset" : 0
        },
        {
            "buffer" : 0,
            "byteLength" : 1995924,
            "byteOffset" : 1995924
        },
        {
            "buffer" : 0,
            "byteLength" : 1330616,
            "byteOffset" : 3991848
        },
        {
            "buffer" : 0,
            "byteLength" : 1523736,
            "byteOffset" : 5322464
        }
    ],
    "buffers" : [
        {
            "byteLength" : 6846200,
            "uri" : "Piso 19.bin"
        }
    ]
}
