<svg xmlns="http://www.w3.org/2000/svg" width="17" height="17" viewBox="0 0 14 13.564">
    <defs>
        <style>
            .cls-5,.cls-8{fill:none}.cls-2{fill:#0666fb}.cls-5{stroke:#0666fb}.cls-6{stroke:none}
        </style>
    </defs>
    <g id="Grupo_1" transform="translate(-199 77.564)">
        <g id="Sustracción_1" fill="none">
            <path d="M12 12H2a2 2 0 0 1-2-2V2a2 2 0 0 1 2-2h.948v1.013a1.105 1.105 0 1 0 2.21 0V0h3.685v1.013a1.105 1.105 0 1 0 2.21 0V0H12a2 2 0 0 1 2 2v8a2 2 0 0 1-2 2z" class="cls-6" transform="translate(199 -76)"/>
            <path fill="#0666fb" d="M12 11.2c.662 0 1.2-.539 1.2-1.2V2c0-.662-.538-1.2-1.2-1.2h-.147v.213c0 1.05-.855 1.905-1.905 1.905s-1.905-.855-1.905-1.905V.8H5.958v.213c0 1.05-.855 1.905-1.905 1.905s-1.905-.855-1.905-1.905V.8H2C1.338.8.8 1.338.8 2v8c0 .661.538 1.2 1.2 1.2h10m0 .8H2c-1.103 0-2-.897-2-2V2C0 .897.897 0 2 0h.948v1.013c0 .609.495 1.105 1.105 1.105s1.105-.496 1.105-1.105V0h3.685v1.013c0 .609.495 1.105 1.105 1.105s1.105-.496 1.105-1.105V0H12c1.103 0 2 .897 2 2v8c0 1.103-.897 2-2 2z" transform="translate(199 -76)"/>
        </g>
        <path id="Trazado_4" d="M.937-.064c.552 0 .821.448.821 1V2.3c0 .552-.269 1-.821 1s-.781-.448-.781-1V.936c.001-.552.229-1 .781-1z" class="cls-2" transform="translate(207.98 -77.5)"/>
        <path id="Trazado_5" d="M1-.054c.552 0 .821.448.821 1v1.367c0 .552-.269 1-.821 1s-.781-.448-.781-1V.946c-.003-.553.225-1 .781-1z" class="cls-2" transform="translate(202.05 -77.45)"/>
        <path id="Trazado_2" fill="#fff" stroke="#0666fb" stroke-width="0.8px" d="M199-60.356h13.283" transform="translate(0.359 -12.024)"/>
        <path id="Trazado_3" fill="none" stroke="#0666fb" stroke-linecap="round" stroke-linejoin="round" stroke-width="0.5px" d="M212-50.753l.6.548 1.3-1.171" transform="translate(-10.467 -19.246)"/>
        <g id="Rectángulo_15" class="cls-5" transform="translate(208.467 -70.309)">
            <rect width="2" height="1" class="cls-6" rx=".5"/>
            <rect width="1" x=".5" y=".5" class="cls-8"/>
        </g>
        <g id="Rectángulo_18" class="cls-5" transform="translate(205 -70.309)">
            <rect width="2" height="1" class="cls-6" rx=".5"/>
            <rect width="1" x=".5" y=".5" class="cls-8"/>
        </g>
        <g id="Rectángulo_17" class="cls-5" transform="translate(208.467 -67.309)">
            <rect width="2" height="1" class="cls-6" rx=".5"/>
            <rect width="1" x=".5" y=".5" class="cls-8"/>
        </g>
        <g id="Rectángulo_19" class="cls-5" transform="translate(205 -67.238)">
            <rect width="2" height="1" class="cls-6" rx=".5"/>
            <rect width="1" x=".5" y=".5" class="cls-8"/>
        </g>
        <g id="Rectángulo_20" class="cls-5" transform="translate(201.266 -67.309)">
            <rect width="2" height="1" class="cls-6" rx=".5"/>
            <rect width="1" x=".5" y=".5" class="cls-8"/>
        </g>
    </g>
</svg>
