<svg xmlns="http://www.w3.org/2000/svg" width="17" height="17" viewBox="0 0 14 13.564">
  <g id="Grupo_3596" data-name="Grupo 3596" transform="translate(-199 77.564)">
    <g id="Sustracción_1" data-name="Sustracción 1" transform="translate(199 -76)" fill="none">
      <path d="M12,12H2a2,2,0,0,1-2-2V2A2,2,0,0,1,2,0h.948V1.013a1.105,1.105,0,1,0,2.21,0V0H8.843V1.013a1.105,1.105,0,1,0,2.21,0V0H12a2,2,0,0,1,2,2v8A2,2,0,0,1,12,12Z" stroke="none"/>
      <path d="M 11.99970054626465 11.19970035552979 C 12.66176986694336 11.19970035552979 13.20040035247803 10.66147041320801 13.20040035247803 9.999899864196777 L 13.20040035247803 1.999800324440002 C 13.20040035247803 1.33823025226593 12.66176986694336 0.8000002503395081 11.99970054626465 0.8000002503395081 L 11.85290050506592 0.8000002503395081 L 11.85290050506592 1.012500286102295 C 11.85290050506592 2.063030242919922 10.99822998046875 2.917700290679932 9.947700500488281 2.917700290679932 C 8.897170066833496 2.917700290679932 8.042500495910645 2.063030242919922 8.042500495910645 1.012500286102295 L 8.042500495910645 0.8000002503395081 L 5.957900047302246 0.8000002503395081 L 5.957900047302246 1.012500286102295 C 5.957900047302246 2.063030242919922 5.103230476379395 2.917700290679932 4.052700042724609 2.917700290679932 C 3.002170324325562 2.917700290679932 2.147500276565552 2.063030242919922 2.147500276565552 1.012500286102295 L 2.147500276565552 0.8000002503395081 L 1.999800324440002 0.8000002503395081 C 1.33823025226593 0.8000002503395081 0.8000002503395081 1.33823025226593 0.8000002503395081 1.999800324440002 L 0.8000002503395081 9.999899864196777 C 0.8000002503395081 10.66147041320801 1.33823025226593 11.19970035552979 1.999800324440002 11.19970035552979 L 11.99970054626465 11.19970035552979 M 11.99970054626465 11.99970054626465 L 1.999800324440002 11.99970054626465 C 0.8971102833747864 11.99970054626465 2.716064386731887e-07 11.10259056091309 2.716064386731887e-07 9.999899864196777 L 2.716064386731887e-07 1.999800324440002 C 2.716064386731887e-07 0.8971102833747864 0.8971102833747864 2.731323149873788e-07 1.999800324440002 2.731323149873788e-07 L 2.947500228881836 2.731323149873788e-07 L 2.947500228881836 1.012500286102295 C 2.947500228881836 1.621910214424133 3.443290233612061 2.117700338363647 4.052700042724609 2.117700338363647 C 4.662110328674316 2.117700338363647 5.157900333404541 1.621910214424133 5.157900333404541 1.012500286102295 L 5.157900333404541 2.731323149873788e-07 L 8.842500686645508 2.731323149873788e-07 L 8.842500686645508 1.012500286102295 C 8.842500686645508 1.621910214424133 9.338290214538574 2.117700338363647 9.947700500488281 2.117700338363647 C 10.55710983276367 2.117700338363647 11.05290031433105 1.621910214424133 11.05290031433105 1.012500286102295 L 11.05290031433105 2.731323149873788e-07 L 11.99970054626465 2.731323149873788e-07 C 13.10289001464844 2.731323149873788e-07 14.00040054321289 0.8971102833747864 14.00040054321289 1.999800324440002 L 14.00040054321289 9.999899864196777 C 14.00040054321289 11.10259056091309 13.10289001464844 11.99970054626465 11.99970054626465 11.99970054626465 Z" stroke="none" fill="#feffff"/>
    </g>
    <path id="Trazado_4" data-name="Trazado 4" d="M.937-.064c.552,0,.821.448.821,1V2.3c0,.552-.269,1-.821,1s-.781-.448-.781-1V.936C.157.384.385-.064.937-.064Z" transform="translate(207.98 -77.5)" fill="#feffff"/>
    <path id="Trazado_5" data-name="Trazado 5" d="M1-.054c.552,0,.821.448.821,1V2.313c0,.552-.269,1-.821,1s-.781-.448-.781-1V.946C.216.393.444-.054,1-.054Z" transform="translate(202.05 -77.45)" fill="#feffff"/>
    <path id="Trazado_2" data-name="Trazado 2" d="M199-60.356h13.283" transform="translate(0.359 -12.024)" fill="#fff" stroke="#feffff" stroke-width="0.8"/>
    <path id="Trazado_3" data-name="Trazado 3" d="M212-50.753l.6.548,1.3-1.171" transform="translate(-10.467 -19.246)" fill="none" stroke="#feffff" stroke-linecap="round" stroke-linejoin="round" stroke-width="0.5"/>
    <g id="Rectángulo_15" data-name="Rectángulo 15" transform="translate(208.467 -70.309)" fill="none" stroke="#feffff" stroke-width="1">
      <rect width="2" height="1" rx="0.5" stroke="none"/>
      <rect x="0.5" y="0.5" width="1" fill="none"/>
    </g>
    <g id="Rectángulo_18" data-name="Rectángulo 18" transform="translate(205 -70.309)" fill="none" stroke="#feffff" stroke-width="1">
      <rect width="2" height="1" rx="0.5" stroke="none"/>
      <rect x="0.5" y="0.5" width="1" fill="none"/>
    </g>
    <g id="Rectángulo_17" data-name="Rectángulo 17" transform="translate(208.467 -67.309)" fill="none" stroke="#feffff" stroke-width="1">
      <rect width="2" height="1" rx="0.5" stroke="none"/>
      <rect x="0.5" y="0.5" width="1" fill="none"/>
    </g>
    <g id="Rectángulo_19" data-name="Rectángulo 19" transform="translate(205 -67.238)" fill="none" stroke="#feffff" stroke-width="1">
      <rect width="2" height="1" rx="0.5" stroke="none"/>
      <rect x="0.5" y="0.5" width="1" fill="none"/>
    </g>
    <g id="Rectángulo_20" data-name="Rectángulo 20" transform="translate(201.266 -67.309)" fill="none" stroke="#feffff" stroke-width="1">
      <rect width="2" height="1" rx="0.5" stroke="none"/>
      <rect x="0.5" y="0.5" width="1" fill="none"/>
    </g>
  </g>
</svg>
