<svg xmlns="http://www.w3.org/2000/svg" width="74" height="56.4" viewBox="0 0 74 56.4">
  <g id="Grupo_3595" data-name="Grupo 3595" transform="translate(1594 -554.074)">
    <circle id="Elipse_30" data-name="Elipse 30" cx="4" cy="4" r="4" transform="translate(-1586 578.074)" fill="#fff"/>
    <circle id="Elipse_36" data-name="Elipse 36" cx="4" cy="4" r="4" transform="translate(-1536 578.074)" fill="#fff"/>
    <g id="Elipse_32" data-name="Elipse 32" transform="translate(-1588 576.074)" fill="none" stroke="#fff" stroke-width="1">
      <circle cx="6" cy="6" r="6" stroke="none"/>
      <circle cx="6" cy="6" r="5.5" fill="none"/>
    </g>
    <g id="Elipse_37" data-name="Elipse 37" transform="translate(-1538 576.074)" fill="none" stroke="#fff" stroke-width="1">
      <circle cx="6" cy="6" r="6" stroke="none"/>
      <circle cx="6" cy="6" r="5.5" fill="none"/>
    </g>
    <g id="Unión_13" data-name="Unión 13" transform="translate(-1590 570.263)" fill="none">
      <path d="M26,31.811a1,1,0,0,1-1-1v-1.65H5.891a2.814,2.814,0,0,1-2.814-2.814V19.068A9.551,9.551,0,0,1,0,11.876,9.549,9.549,0,0,1,3.076,4.684V4.118A2.814,2.814,0,0,1,5.891,1.3L13.057,0H52.881l7.365,1.3a2.814,2.814,0,0,1,2.813,2.815v.565a9.553,9.553,0,0,1,3.076,7.193,9.555,9.555,0,0,1-3.076,7.194v7.277a2.814,2.814,0,0,1-2.813,2.814H41v1.65a1,1,0,0,1-1,1Z" stroke="none"/>
      <path d="M 40.00040054321289 30.81060028076172 L 40.00040054321289 28.1609001159668 L 60.24600219726562 28.1609001159668 C 61.24591064453125 28.1609001159668 62.05940246582031 27.34700965881348 62.05940246582031 26.34660148620605 L 62.05940246582031 18.61650085449219 L 62.39956283569336 18.31779098510742 C 63.22452163696289 17.59337043762207 63.90996170043945 16.6396312713623 64.38179016113281 15.5596809387207 C 64.88198089599609 14.41481018066406 65.13560485839844 13.17527008056641 65.13560485839844 11.87550067901611 C 65.13560485839844 10.57582092285156 64.88199615478516 9.336450576782227 64.38182067871094 8.191830635070801 C 63.91004180908203 7.112190723419189 63.22459411621094 6.158590316772461 62.39956283569336 5.434110641479492 L 62.05940246582031 5.135400772094727 L 62.05940246582031 4.117500782012939 C 62.05940246582031 3.116600513458252 61.24591064453125 2.302300453186035 60.24600219726562 2.302300453186035 L 60.15827178955078 2.302300453186035 L 52.79358291625977 1.000000596046448 L 13.14733695983887 1.000000596046448 L 5.980622291564941 2.302300453186035 L 5.890502452850342 2.302300453186035 C 4.890092372894287 2.302300453186035 4.076202392578125 3.116600513458252 4.076202392578125 4.117500782012939 L 4.076202392578125 5.136460781097412 L 3.735832452774048 5.435190677642822 C 2.910932540893555 6.159160614013672 2.225542545318604 7.11245059967041 1.753772377967834 8.191970825195312 C 1.253602385520935 9.336470603942871 1.000002384185791 10.57579040527344 1.000002384185791 11.87550067901611 C 1.000002384185791 13.17530059814453 1.253612399101257 14.41479015350342 1.753802418708801 15.55954074859619 C 2.225622415542603 16.63938140869141 2.911002397537231 17.59280014038086 3.735832452774048 18.31671142578125 L 4.076202392578125 18.61544036865234 L 4.076202392578125 26.34660148620605 C 4.076202392578125 27.34700965881348 4.890092372894287 28.1609001159668 5.890502452850342 28.1609001159668 L 26.00020217895508 28.1609001159668 L 26.00010299682617 30.81050109863281 L 40.00040054321289 30.81060028076172 M 39.99960327148438 31.81050109863281 L 26.00010299682617 31.81050109863281 C 25.44750213623047 31.81050109863281 25.00020217895508 31.36320114135742 25.00020217895508 30.81060028076172 L 25.00020217895508 29.1609001159668 L 5.890502452850342 29.1609001159668 C 4.336202621459961 29.1609001159668 3.076202392578125 27.90089988708496 3.076202392578125 26.34660148620605 L 3.076202392578125 19.06830024719238 C 1.207802414894104 17.42850112915039 2.429199184916797e-06 14.81670093536377 2.429199184916797e-06 11.87550067901611 C 2.429199184916797e-06 8.934300422668457 1.207802414894104 6.323400497436523 3.076202392578125 4.683600425720215 L 3.076202392578125 4.117500782012939 C 3.076202392578125 2.562300443649292 4.336202621459961 1.302300572395325 5.890502452850342 1.302300572395325 L 13.05720233917236 5.493163826031378e-07 L 52.88130187988281 5.493163826031378e-07 L 60.24600219726562 1.302300572395325 C 61.79940414428711 1.302300572395325 63.05940246582031 2.562300443649292 63.05940246582031 4.117500782012939 L 63.05940246582031 4.682700634002686 C 64.92780303955078 6.323400497436523 66.13560485839844 8.934300422668457 66.13560485839844 11.87550067901611 C 66.13560485839844 14.81670093536377 64.92780303955078 17.42850112915039 63.05940246582031 19.06920051574707 L 63.05940246582031 26.34660148620605 C 63.05940246582031 27.90089988708496 61.79940414428711 29.1609001159668 60.24600219726562 29.1609001159668 L 41.00040054321289 29.1609001159668 L 41.00040054321289 30.81060028076172 C 41.00040054321289 31.36320114135742 40.55220413208008 31.81050109863281 39.99960327148438 31.81050109863281 Z" stroke="none" fill="#fff"/>
    </g>
    <path id="Trazado_104" data-name="Trazado 104" d="M-1585,570l3.171,4.519h31.95L-1547.4,570Z" transform="translate(9.071 0.96)" fill="none" stroke="#fff" stroke-width="1"/>
    <g id="Trazado_105" data-name="Trazado 105" transform="translate(-1580.943 554.074)" fill="none">
      <path d="M6.421,0H41.6a5.629,5.629,0,0,1,5.629,5.629l2.558,10.814c0,3.109-5.078,0-8.187,0H6.421c-3.109,0-8.368,3.109-8.368,0L.793,5.629A5.629,5.629,0,0,1,6.421,0Z" stroke="none"/>
      <path d="M 6.42120361328125 0.9999980926513672 C 3.868972778320312 0.9999980926513672 1.792583465576172 3.076387405395508 1.792583465576172 5.628607749938965 L 1.792583465576172 5.753287315368652 L -0.9428634643554688 16.55281066894531 C -0.9327049255371094 16.69008255004883 -0.9052162170410156 16.74576568603516 -0.8987693786621094 16.75711631774902 C -0.883026123046875 16.76704025268555 -0.77783203125 16.82469749450684 -0.4680061340332031 16.82469749450684 C 0.2565536499023438 16.82469749450684 1.379215240478516 16.51157760620117 2.464912414550781 16.2087574005127 C 3.814533233642578 15.83233737945557 5.210113525390625 15.4430980682373 6.42120361328125 15.4430980682373 L 41.60002517700195 15.4430980682373 C 42.82211303710938 15.4430980682373 44.20368194580078 15.83715724945068 45.53977203369141 16.21825790405273 C 46.58506393432617 16.51639747619629 47.66594314575195 16.82469749450684 48.35500335693359 16.82469749450684 C 48.61728286743164 16.82469749450684 48.71780014038086 16.77909851074219 48.73867034912109 16.76776885986328 C 48.74700546264648 16.75170707702637 48.77417373657227 16.68939590454102 48.78349304199219 16.54635620117188 L 46.22864532470703 5.745267868041992 L 46.22864532470703 5.628607749938965 C 46.22864532470703 3.076387405395508 44.15225219726562 0.9999980926513672 41.60002517700195 0.9999980926513672 L 6.42120361328125 0.9999980926513672 M 6.42120361328125 -1.9073486328125e-06 L 41.60002517700195 -1.9073486328125e-06 C 44.70862579345703 -1.9073486328125e-06 47.22864532470703 2.520017623901367 47.22864532470703 5.628607749938965 L 49.78666305541992 16.4430980682373 C 49.78666305541992 19.55169868469238 44.70862579345703 16.4430980682373 41.60002517700195 16.4430980682373 L 6.42120361328125 16.4430980682373 C 3.312602996826172 16.4430980682373 -1.9466552734375 19.55169296264648 -1.9466552734375 16.4430980682373 L 0.7925834655761719 5.628607749938965 C 0.7925834655761719 2.520017623901367 3.312602996826172 -1.9073486328125e-06 6.42120361328125 -1.9073486328125e-06 Z" stroke="none" fill="#fff"/>
    </g>
    <g id="Trazado_106" data-name="Trazado 106" transform="translate(-1574.854 558.64)" fill="none">
      <path d="M4.481,0H31.5a4.257,4.257,0,0,1,4.323,4.187l1.965,8.044H-1.947l2.1-8.044A4.257,4.257,0,0,1,4.481,0Z" stroke="none"/>
      <path d="M 4.480794906616211 1.000000953674316 C 2.648265838623047 1.000000953674316 1.157386779785156 2.429600715637207 1.157386779785156 4.186810493469238 L 1.157386779785156 4.315430641174316 L -0.6514625549316406 11.23110008239746 L 36.51665496826172 11.23110008239746 L 34.82546615600586 4.307170391082764 L 34.82546615600586 4.186810493469238 C 34.82546615600586 2.429600715637207 33.33458709716797 1.000000953674316 31.50205612182617 1.000000953674316 L 4.480794906616211 1.000000953674316 M 4.480794906616211 9.5367431640625e-07 L 31.50205612182617 9.5367431640625e-07 C 33.88980484008789 9.5367431640625e-07 35.82546615600586 1.874500274658203 35.82546615600586 4.186810493469238 L 37.79030609130859 12.23110008239746 C 37.79030609130859 12.23110008239746 33.88980484008789 12.23110008239746 31.50205612182617 12.23110008239746 L 4.480794906616211 12.23110008239746 C 2.093036651611328 12.23110008239746 -1.9466552734375 12.23110008239746 -1.9466552734375 12.23110008239746 L 0.1573867797851562 4.186810493469238 C 0.1573867797851562 1.874500274658203 2.093036651611328 9.5367431640625e-07 4.480794906616211 9.5367431640625e-07 Z" stroke="none" fill="#fff"/>
    </g>
    <path id="Sustracción_15" data-name="Sustracción 15" d="M3.883,32.1H2.5A2.5,2.5,0,0,1,0,29.6V2.5A2.5,2.5,0,0,1,2.5,0H3.883a2.5,2.5,0,0,1,2.5,2.5V29.6A2.5,2.5,0,0,1,3.883,32.1ZM.336,25.741h0Zm.006-5.069h0ZM.332,15.6h0Zm0-5.069h0Zm0-5.069h0Z" transform="translate(-1540.949 580.804) rotate(90)" fill="none" stroke="#fff" stroke-width="1"/>
    <path id="Sustracción_18" data-name="Sustracción 18" d="M58.056,39.711h-4.9a2.5,2.5,0,0,1-2.5-2.5v-8.55h9.591a2.334,2.334,0,0,0,.311-.021v8.571A2.5,2.5,0,0,1,58.056,39.711Zm-6.88-3.394h0Zm.011-2.7h0Zm-.016-2.705h0Z" transform="translate(-1590.123 570.263)" fill="none" stroke="#fff" stroke-width="1"/>
    <path id="Sustracción_17" data-name="Sustracción 17" d="M13.4,39.711H8.5a2.5,2.5,0,0,1-2.5-2.5v-8.55h9.9v8.55A2.5,2.5,0,0,1,13.4,39.711ZM6.521,36.317h0Zm.011-2.7h0Zm-.016-2.705h0Z" transform="translate(-1590.123 570.263)" fill="none" stroke="#fff" stroke-width="1"/>
    <g id="Rectángulo_75" data-name="Rectángulo 75" transform="translate(-1565 595.074)" fill="none" stroke="#fff" stroke-width="1">
      <rect width="16" height="7" rx="1" stroke="none"/>
      <rect x="0.5" y="0.5" width="15" height="6" rx="0.5" fill="none"/>
    </g>
    <g id="Rectángulo_77" data-name="Rectángulo 77" transform="translate(-1594 564)" fill="#fff" stroke="#fff" stroke-width="1">
      <rect width="10" height="7" rx="3" stroke="none"/>
      <rect x="0.5" y="0.5" width="9" height="6" rx="2.5" fill="none"/>
    </g>
    <g id="Rectángulo_78" data-name="Rectángulo 78" transform="translate(-1530 564)" fill="#fff" stroke="#fff" stroke-width="1">
      <rect width="10" height="7" rx="3" stroke="none"/>
      <rect x="0.5" y="0.5" width="9" height="6" rx="2.5" fill="none"/>
    </g>
    <path id="Trazado_129" data-name="Trazado 129" d="M-1585.595,569.536l1.1,2.57" fill="none" stroke="#fff" stroke-width="3"/>
    <path id="Trazado_130" data-name="Trazado 130" d="M-1583.02,569.27l-1.47,2.836" transform="translate(54.923)" fill="none" stroke="#fff" stroke-width="3"/>
  </g>
</svg>
