<svg xmlns="http://www.w3.org/2000/svg" width="32.436" height="61.474" viewBox="0 0 32.436 61.474">
  <g id="Grupo_3594" data-name="Grupo 3594" transform="translate(1655.239 -549)">
    <g id="Unión_10" data-name="Unión 10" transform="translate(-1651.08 558.556)" fill="none">
      <path d="M7.982,36.445A8.13,8.13,0,0,1,0,28.175L3.7,11.637c1.472-4.594,2.13-7.708,5.616-8.2V2.426a2.426,2.426,0,0,1,4.853,0v1c3.47.4,4.264,2.921,6.13,8.21l3.857,16.538a8.13,8.13,0,0,1-7.982,8.269Z" stroke="none"/>
      <path d="M 16.17840003967285 35.44459915161133 C 19.99262428283691 35.44459915161133 23.10231971740723 32.24410247802734 23.15969085693359 28.28699111938477 L 19.34170722961426 11.9175910949707 L 19.21038055419922 11.54494953155518 C 18.34547996520996 9.089550018310547 17.7205810546875 7.315479755401611 16.93807029724121 6.1480393409729 C 16.21837043762207 5.074289798736572 15.3839807510376 4.573629379272461 14.05807113647461 4.419959545135498 L 13.1732006072998 4.317399501800537 L 13.1732006072998 2.42639946937561 C 13.1732006072998 1.639879584312439 12.53332042694092 0.9999995827674866 11.74680042266846 0.9999995827674866 C 10.960280418396 0.9999995827674866 10.32040119171143 1.639879584312439 10.32040119171143 2.42639946937561 L 10.32040119171143 4.305829524993896 L 9.460070610046387 4.427189350128174 C 7.00774097442627 4.773099422454834 6.329480648040771 6.619869709014893 5.029080867767334 10.76408004760742 C 4.914064407348633 11.13060283660889 4.795268058776855 11.50920104980469 4.670424461364746 11.89930438995361 L 1.000749826431274 28.28267288208008 C 1.055884599685669 32.24180603027344 4.166468143463135 35.44459915161133 7.982100963592529 35.44459915161133 L 16.17840003967285 35.44459915161133 M 16.17840003967285 36.44459915161133 L 7.982100963592529 36.44459915161133 C 3.573900699615479 36.44459915161133 7.400512913591228e-07 32.74200057983398 7.400512913591228e-07 28.17539978027344 L 3.704400777816772 11.63699913024902 C 5.176510810852051 7.043459415435791 5.83396053314209 3.928769588470459 9.320401191711426 3.436989545822144 L 9.320401191711426 2.42639946937561 C 9.320401191711426 1.086299538612366 10.40670108795166 -4.241943258875835e-07 11.74680042266846 -4.241943258875835e-07 C 13.08690071105957 -4.241943258875835e-07 14.1732006072998 1.086299538612366 14.1732006072998 2.42639946937561 L 14.1732006072998 3.426609516143799 C 17.64289093017578 3.828749656677246 18.43732070922852 6.347489356994629 20.3031005859375 11.63699913024902 L 24.16050148010254 28.17539978027344 C 24.16050148010254 32.74200057983398 20.58660125732422 36.44459915161133 16.17840003967285 36.44459915161133 Z" stroke="none" fill="#fff"/>
    </g>
    <g id="Intersección_1" data-name="Intersección 1" transform="translate(-1630.421 589.317) rotate(180)" fill="none">
      <path d="M7.006,15.494v-13a5.772,5.772,0,0,1,.779-.05H9.84a7.322,7.322,0,0,1,.814.042V15.494a1.824,1.824,0,0,1-3.648,0Z" stroke="none"/>
      <path d="M 8.829900741577148 16.3169002532959 C 9.283920288085938 16.3169002532959 9.653300285339355 15.94752025604248 9.653300285339355 15.49350070953369 L 9.653300285339355 3.444400548934937 L 8.005600929260254 3.444400548934937 L 8.005600929260254 15.49350070953369 C 8.005600929260254 15.94752025604248 8.375380516052246 16.3169002532959 8.829900741577148 16.3169002532959 M 8.829900741577148 17.3169002532959 C 7.822800636291504 17.3169002532959 7.005600452423096 16.50060081481934 7.005600452423096 15.49350070953369 L 7.005600452423096 2.493920564651489 C 7.246450424194336 2.461130619049072 7.505190372467041 2.444400548934937 7.784100532531738 2.444400548934937 L 9.839700698852539 2.444400548934937 C 10.13136100769043 2.444400548934937 10.40163040161133 2.458280563354492 10.65330028533936 2.486450433731079 L 10.65330028533936 15.49350070953369 C 10.65330028533936 16.50060081481934 9.837000846862793 17.3169002532959 8.829900741577148 17.3169002532959 Z" stroke="none" fill="#fff"/>
    </g>
    <path id="Sustracción_4" data-name="Sustracción 4" d="M2.431,23.1A2.434,2.434,0,0,1,0,20.669V2.432a2.431,2.431,0,1,1,4.863,0V20.669A2.435,2.435,0,0,1,2.431,23.1ZM.256,18.524h0Zm.005-3.647h0ZM.254,11.229h0Zm0-3.648h0Zm0-3.648h0Z" transform="translate(-1641.431 586.873)" fill="none" stroke="#fff" stroke-width="1"/>
    <path id="Unión_7" data-name="Unión 7" d="M9.548,5a4.479,4.479,0,0,1,.544-2.146l-2.076-1.3h3.136a4.5,4.5,0,0,1,5.793,0h2.4L17.793,2.5A4.5,4.5,0,1,1,9.548,5Zm9.8-3.444h0ZM0,1.556H0Z" transform="translate(-1653.048 549)" fill="none" stroke="#fff" stroke-linecap="round" stroke-linejoin="round" stroke-width="1"/>
    <circle id="Elipse_28" data-name="Elipse 28" cx="3" cy="3" r="3" transform="translate(-1642 551)" fill="#fff"/>
    <path id="Trazado_97" data-name="Trazado 97" d="M-1060.092,362.195h-8.248" transform="translate(-565.361 188.361)" fill="none" stroke="#fff" stroke-linecap="round" stroke-linejoin="round" stroke-width="2"/>
    <path id="Trazado_102" data-name="Trazado 102" d="M-1065.041,362.195h-3.3" transform="translate(-558.763 226.234)" fill="none" stroke="#fff" stroke-linecap="round" stroke-linejoin="round" stroke-width="2"/>
    <path id="Trazado_98" data-name="Trazado 98" d="M-1060.092,362.195h-8.248" transform="translate(-584.361 188.361)" fill="none" stroke="#fff" stroke-linecap="round" stroke-linejoin="round" stroke-width="2"/>
    <path id="Trazado_101" data-name="Trazado 101" d="M-1065.18,362.195h-3.159" transform="translate(-585.9 226.234)" fill="none" stroke="#fff" stroke-linecap="round" stroke-linejoin="round" stroke-width="2"/>
    <rect id="Rectángulo_70" data-name="Rectángulo 70" width="10" height="14" rx="4" transform="translate(-1644 579)" fill="#fff"/>
  </g>
</svg>
