<svg xmlns="http://www.w3.org/2000/svg" width="83.156" height="42.973" viewBox="0 0 83.156 42.973">
    <defs>
        <style>
            .cls-1{fill:none}.cls-2,.cls-4{fill:#fff}.cls-5,.cls-6{stroke:none}.cls-6{fill:#fff}
        </style>
    </defs>
    <g id="Grupo_3587" transform="translate(-331.923 -274.028)">
        <g id="Sustracci칩n_3" class="cls-1">
            <path d="M54 30H3a3 3 0 0 1-3-3V3a3 3 0 0 1 3-3h1.851v2.6a1 1 0 0 0 1 1h4.063a1 1 0 0 0 1-1V0H54a3 3 0 0 1 3 3v24a3 3 0 0 1-3 3z" class="cls-5" transform="translate(345 287)"/>
            <path d="M54 29c1.103 0 2-.897 2-2V3c0-1.102-.897-2-2-2H11.914v1.6c0 1.103-.897 2-2 2H5.851c-1.103 0-2-.897-2-2V1H3c-1.103 0-2 .898-2 2v24c0 1.103.897 2 2 2h51m0 1H3c-1.654 0-3-1.345-3-3V3c0-1.653 1.346-3 3-3H4.85v2.6c0 .551.449 1 1 1h4.063c.552 0 1-.449 1-1V0H54c1.654 0 3 1.347 3 3v24c0 1.655-1.346 3-3 3z" class="cls-6" transform="translate(345 287)"/>
        </g>
        <g id="Trazado_21" class="cls-1">
            <path d="M2.628-.364h23.1a2.432 2.432 0 0 1 2.432 2.432l-.99 11.391S.716 13.382.716 13.444L.2 2.068A2.432 2.432 0 0 1 2.628-.364z" class="cls-5" transform="translate(359.755 274.391)"/>
            <path d="M2.628.636c-.783 0-1.421.632-1.432 1.412l.474 10.38.509-.003c.872-.003 2.146-.005 3.788-.005 6.466 0 17.113.028 20.286.037L27.16 2.03c-.02-.772-.654-1.394-1.431-1.394H2.628m0-1h23.1c1.344 0 2.433 1.09 2.433 2.432L27.17 13.46S.716 13.382.716 13.444L.196 2.068C.196.725 1.285-.364 2.628-.364z" class="cls-6" transform="translate(359.755 274.391)"/>
        </g>
        <path id="Trazado_22" d="M1.216 0h1.216a1.216 1.216 0 0 1 1.216 1.216l-.312 3.647A1.216 1.216 0 0 1 2.12 6.079h-.7A1.216 1.216 0 0 1 .2 4.863L0 1.216A1.216 1.216 0 0 1 1.216 0z" class="cls-2" transform="translate(351.202 282.981)"/>
        <path id="Trazado_23" fill="none" stroke="#fff" stroke-width="0.5px" d="M-1074.543 218.594l-.543-1.787h-.813" transform="translate(1427.224 64.723)"/>
        <path id="Rect치ngulo_27" d="M0 0H5V4H0z" class="cls-2" transform="translate(390 284)"/>
        <g id="Trazado_77" class="cls-1">
            <path d="M3 0a3 3 0 0 1 3 3v6.727H0V3a3 3 0 0 1 3-3z" class="cls-5" transform="translate(336.239 306.5) rotate(-90)"/>
            <path d="M3 1c-1.103 0-2 .897-2 2v5.727h4V3c0-1.103-.897-2-2-2m0-1c1.657 0 3 1.343 3 3v6.727H0V3c0-1.657 1.343-3 3-3z" class="cls-6" transform="translate(336.239 306.5) rotate(-90)"/>
        </g>
        <g id="Trazado_78" class="cls-1">
            <path d="M2.853 9.379a2.873 2.873 0 0 0 2.853-2.893V0H0v6.486a2.873 2.873 0 0 0 2.853 2.893z" class="cls-5" transform="translate(401.033 306.353) rotate(-90)"/>
            <path d="M2.853 8.379c1.022 0 1.853-.85 1.853-1.893V1H1v5.486C1 7.53 1.831 8.38 2.853 8.38m0 1C1.277 9.379 0 8.084 0 6.486V0h5.706v6.486c0 1.598-1.277 2.893-2.853 2.893z" class="cls-6" transform="translate(401.033 306.353) rotate(-90)"/>
        </g>
        <g id="Sustracci칩n_6" class="cls-1">
            <path d="M8.715-802.987a3 3 0 0 1-2.909-2.275l-.357-1.431a2.366 2.366 0 0 0 1.545.574l4.719-.032a3 3 0 0 1-2.27 3.074 3.016 3.016 0 0 1-.728.09zm-3.927-6.358l-3.336-13.382A2.978 2.978 0 0 1 1.791-825a2.98 2.98 0 0 1 1.846-1.365 3.01 3.01 0 0 1 .729-.09 2.993 2.993 0 0 1 2.907 2.274l3.317 13.3-3.6.024a2.354 2.354 0 0 0-2.2 1.5z" class="cls-5" transform="translate(330.562 1100.675)"/>
            <path d="M8.715-803.987c.163 0 .326-.02.486-.06.602-.15 1.081-.563 1.33-1.096l-3.537.024-.08-.001c.328.683 1.02 1.133 1.801 1.133m-3.41-7.416c.5-.288 1.077-.449 1.685-.45l2.322-.015-3.01-12.069c-.222-.893-1.018-1.516-1.936-1.516-.163 0-.327.02-.487.06-.519.13-.956.453-1.231.91-.275.458-.355.996-.226 1.514l2.883 11.566m3.41 8.416c-1.378 0-2.575-.935-2.91-2.275l-.356-1.43c.429.369.977.573 1.545.573l4.72-.032c.079 1.435-.877 2.727-2.271 3.075-.24.06-.484.09-.728.09zm-3.927-6.358v-.003l-3.336-13.379c-.194-.777-.074-1.584.339-2.27.412-.687 1.068-1.172 1.846-1.366.24-.06.484-.09.729-.09 1.378 0 2.573.935 2.907 2.274l3.317 13.303-3.596.024c-.982 0-1.847.59-2.205 1.504l-.001.003z" class="cls-6" transform="translate(330.562 1100.675)"/>
        </g>
        <g id="Sustracci칩n_7" class="cls-1">
            <path d="M3 23.466a3 3 0 0 0 2.909-2.275l.357-1.431a2.366 2.366 0 0 1-1.545.574L0 20.3a3 3 0 0 0 2.27 3.074q.09.022.18.039t.182.028q.091.011.183.017t.185.008zm3.93-6.358l3.336-13.382a3.028 3.028 0 0 0 .087-.586 2.963 2.963 0 0 0-.172-1.149A3.047 3.047 0 0 0 9.574.98a2.967 2.967 0 0 0-.935-.692 3.029 3.029 0 0 0-.559-.2Q7.991.068 7.9.051T7.718.023Q7.627.011 7.535.006T7.352 0a2.994 2.994 0 0 0-2.907 2.274l-3.317 13.3 3.6.024a2.391 2.391 0 0 1 .708.107 2.344 2.344 0 0 1 1.139.777 2.39 2.39 0 0 1 .357.621z" class="cls-5" transform="translate(404.722 274.222)"/>
            <path d="M3.002 22.466l-.121-.003c-.041-.003-.082-.007-.122-.012-.04-.005-.081-.011-.122-.019-.04-.007-.08-.016-.12-.026-.15-.037-.294-.091-.427-.16-.133-.068-.258-.15-.37-.244-.114-.095-.216-.201-.305-.317-.09-.116-.166-.242-.228-.375l3.53.024h.067l.02-.001c-.082.17-.187.327-.31.465-.124.138-.265.259-.421.358-.156.099-.326.176-.506.23-.18.052-.37.08-.564.08m3.41-7.416c-.125-.072-.255-.136-.389-.192-.134-.056-.272-.103-.413-.14-.141-.039-.286-.068-.433-.087-.148-.02-.298-.03-.45-.03l-2.322-.016 3.01-12.069c.055-.223.146-.43.267-.613.12-.184.269-.346.44-.48.17-.133.363-.24.57-.312.208-.072.43-.111.659-.111.04 0 .082.001.122.004.041.002.082.006.122.011.041.005.082.011.122.019.04.008.081.016.121.026.13.033.254.077.373.133.118.055.23.122.334.2.104.076.2.164.288.26.088.097.167.203.236.318.069.114.125.233.17.356.044.123.075.25.095.378.019.128.025.258.019.388-.007.13-.026.261-.058.391L6.412 15.05m-3.41 8.416c.345 0 .678-.058.99-.167.31-.108.6-.267.857-.468.256-.2.48-.443.661-.719.18-.276.318-.586.402-.92l.357-1.432c-.108.093-.222.175-.343.246-.12.07-.247.13-.377.18-.131.048-.266.085-.404.11-.138.025-.28.038-.421.038l-4.72-.032c-.02.359.025.708.126 1.037.1.328.255.635.457.908.201.273.45.512.734.704.284.193.605.339.954.426.06.015.12.028.18.039s.121.02.182.028c.06.007.122.013.183.017.06.003.122.005.182.005zm3.928-6.358v-.003l3.336-13.379c.049-.194.077-.39.087-.586.01-.196 0-.391-.029-.583-.029-.193-.076-.382-.143-.566-.066-.185-.15-.364-.254-.536-.103-.171-.222-.33-.353-.475C9.442.834 9.297.703 9.14.588c-.157-.116-.324-.216-.502-.3-.177-.083-.364-.15-.558-.198C8.02.075 7.96.062 7.9.05 7.84.04 7.778.03 7.717.024c-.06-.008-.122-.014-.183-.017C7.475.002 7.413 0 7.352 0c-.344 0-.678.058-.989.167-.31.109-.6.267-.856.468-.257.2-.48.443-.661.72-.18.275-.318.585-.401.92L1.128 15.576l3.596.024c.245 0 .483.037.708.106.225.07.436.172.628.303s.365.29.511.474c.147.184.268.393.358.621v.003z" class="cls-6" transform="translate(404.722 274.222)"/>
        </g>
        <g id="Trazado_82" class="cls-4">
            <path d="M2.584 6.569H.776v-7.593c0-.499.405-.904.904-.904s.904.405.904.904V6.57z" class="cls-5" transform="translate(338.826 293.904) rotate(-90)"/>
            <path d="M1.68-1.428c-.223 0-.404.181-.404.404V6.07h.808v-7.093c0-.223-.181-.404-.404-.404m0-1c.776 0 1.404.628 1.404 1.404V7.07H.276v-8.093c0-.776.628-1.404 1.404-1.404z" class="cls-6" transform="translate(338.826 293.904) rotate(-90)"/>
        </g>
        <g id="Trazado_84" class="cls-4">
            <path d="M9.5 1.4A1.4 1.4 0 0 0 8.093 0H0v2.809h8.093A1.4 1.4 0 0 0 9.5 1.4z" class="cls-5" transform="translate(401.196 290.82)"/>
            <path d="M1 1h7.093c.056 0 .109.011.157.032.048.02.092.05.129.087.036.036.066.08.086.128.02.049.032.102.032.157 0 .056-.011.11-.032.158-.02.048-.05.092-.086.128-.037.037-.08.067-.129.087-.048.02-.101.032-.157.032H1V1M0 0v2.809h8.093c.194 0 .378-.04.546-.11.168-.072.32-.174.447-.302.127-.127.23-.278.3-.446.072-.168.111-.353.111-.547 0-.193-.04-.378-.11-.546C9.316.69 9.213.538 9.086.41s-.279-.23-.447-.3C8.471.038 8.287 0 8.093 0H0z" class="cls-6" transform="translate(401.196 290.82)"/>
        </g>
    </g>
</svg>
